<?xml version="1.0" encoding="UTF-8"?>
<svg id="Layer_2" data-name="Layer 2" xmlns="http://www.w3.org/2000/svg" viewBox="0 0 594.67 207.25">
  <defs>
    <style>
      .cls-1 {
        fill: #d32e2e;
      }

      .cls-2 {
        fill: none;
        stroke: #fbb040;
        stroke-miterlimit: 10;
        stroke-width: 2.99px;
      }

      .cls-3 {
        fill: #fbb040;
        font-family: Chomsky, Chomsky;
        font-size: 177.83px;
      }
    </style>
  </defs>
  <g id="Layer_1-2" data-name="Layer 1">
    <text class="cls-3" transform="translate(0 145.74)"><tspan x="0" y="0" xml:space="preserve">C  rnholy</tspan></text>
    <path class="cls-2" d="M146.98,47.27c15.83,0,28.67,3.03,28.67,6.76"/>
    <path class="cls-2" d="M118.32,54.03c0-3.73,12.83-6.76,28.67-6.76"/>
    <path class="cls-2" d="M175.65,54.03c0,3.73-12.83,6.76-28.67,6.76s-28.67-3.03-28.67-6.76"/>
    <path class="cls-1" d="M151.05,71.61l-38.98,26.96c-1.7,1.18-2.13,3.52-.95,5.22l26.96,38.98c1.18,1.7,3.52,2.13,5.22.95l38.98-26.96c1.7-1.18,2.13-3.52.95-5.22l-26.96-38.98c-1.18-1.7-3.52-2.13-5.22-.95ZM167.4,95.39l2.98,4.31s.01.07-.02.09l-1.2.83s-.07.01-.09-.02l-2.98-4.31s-.01-.07.02-.09l1.2-.83s.07-.01.09.02ZM132.67,89.06l.83,1.2s.01.07-.02.09l-4.31,2.98s-.07.01-.09-.02l-.83-1.2s-.01-.07.02-.09l4.31-2.98s.07-.01.09.02ZM117.88,106.72s-.07.01-.09-.02l-3.2-4.63s0-.01,0-.02l.06-.31s0,0,.01,0l.76.15s.01,0,.02,0l.63-.44s.01,0,.01,0l3.01,4.35s.01.07-.02.09l-1.2.83ZM119.44,98.13l4.31-2.98s.07-.01.09.02l.83,1.2s.01.07-.02.09l-4.31,2.98s-.07.01-.09-.02l-.83-1.2s-.01-.07.02-.09ZM123.9,115.53l-2.98-4.31s-.01-.07.02-.09l1.2-.83s.07-.01.09.02l2.98,4.31s.01.07-.02.09l-1.2.83s-.07.01-.09-.02ZM130.01,124.37l-2.98-4.31s-.01-.07.02-.09l1.2-.83s.07-.01.09.02l2.98,4.31s.01.07-.02.09l-1.2.83s-.07.01-.09-.02ZM136.12,133.2l-2.98-4.31s-.01-.07.02-.09l1.2-.83s.07-.01.09.02l2.98,4.31s.01.07-.02.09l-1.2.83s-.07.01-.09-.02ZM137.1,85.92l4.31-2.98s.07-.01.09.02l.83,1.2s.01.07-.02.09l-4.31,2.98s-.07.01-.09-.02l-.83-1.2s-.01-.07.02-.09ZM141.59,140.25s-.01,0-.02,0l-.63-.12s-.01,0-.02,0l-.2-.25s0-.01-.01-.02l-1.47-2.12s-.01-.07.02-.09l1.2-.83s.07-.01.09.02l1,1.44s.06.04.09.02l1.46-1.01s.07-.01.09.02l.83,1.2s.01.07-.02.09l-2.42,1.67ZM145.93,79.81l4.31-2.98s.07-.01.09.02l.83,1.2s.01.07-.02.09l-4.31,2.98s-.07.01-.09-.02l-.83-1.2s-.01-.07.02-.09ZM148.44,135.43l-.83-1.2s-.01-.07.02-.09l4.31-2.98s.07-.01.09.02l.83,1.2s.01.07-.02.09l-4.31,2.98s-.07.01-.09-.02ZM155.18,77.72l2.98,4.31s.01.07-.02.09l-1.2.83s-.07.01-.09-.02l-2.98-4.31s-.01-.07.02-.09l1.2-.83s.07-.01.09.02ZM157.27,129.32l-.83-1.2s-.01-.07.02-.09l4.31-2.98s.07-.01.09.02l.83,1.2s.01.07-.02.09l-4.31,2.98s-.07.01-.09-.02ZM162.96,91.76l-2.98-4.31s-.01-.07.02-.09l1.2-.83s.07-.01.09.02l2.98,4.31s.01.07-.02.09l-1.2.83s-.07.01-.09-.02ZM166.1,123.21l-.83-1.2s-.01-.07.02-.09l4.31-2.98s.07-.01.09.02l.83,1.2s.01.07-.02.09l-4.31,2.98s-.07.01-.09-.02ZM173.51,104.22l2.98,4.31s.01.07-.02.09l-1.2.83s-.07.01-.09-.02l-2.98-4.31s-.01-.07.02-.09l1.2-.83s.07-.01.09.02ZM174.93,117.1l-.83-1.2s-.01-.07.02-.09l4.33-2.99s.01,0,.01,0l.43.62s.01,0,.02,0l.78.12s0,0,0,.01l-.06.34s0,.01,0,.02l-4.6,3.18s-.07.01-.09-.02Z"/>
  </g>
</svg>